<svg width="15.750000" height="15.719971" viewBox="0 0 15.75 15.72" fill="none" xmlns="http://www.w3.org/2000/svg" xmlns:xlink="http://www.w3.org/1999/xlink">
	<desc>
			Created with Pixso.
	</desc>
	<defs/>
	<path id="path" d="M3.51 15.72L3.51 5.2L0.24 5.2L0.24 15.72L3.51 15.72ZM1.86 3.79C2.91 3.79 3.76 2.91 3.76 1.87C3.76 0.84 2.91 0 1.86 0C0.84 0 0 0.84 0 1.87C0 2.91 0.84 3.79 1.86 3.79ZM15.71 15.72L15.75 9.95C15.75 7.14 15.11 4.95 11.81 4.95C10.22 4.95 9.17 5.83 8.71 6.64L8.68 5.2L5.55 5.2L5.55 15.72L8.82 15.72L8.82 10.51C8.82 9.14 9.06 7.83 10.75 7.83C12.44 7.83 12.48 9.39 12.48 10.62L12.48 15.72L15.71 15.72Z" fill="#292F36" fill-opacity="1.000000" fill-rule="nonzero"/>
</svg>
