<svg width="16.624756" height="16.622482" viewBox="0 0 16.6248 16.6225" fill="none" xmlns="http://www.w3.org/2000/svg" xmlns:xlink="http://www.w3.org/1999/xlink">
	<desc>
			Created with Pixso.
	</desc>
	<defs/>
	<path id="path" d="M8.33 4.02C5.95 4.02 4.06 5.95 4.06 8.3C4.06 10.67 5.95 12.56 8.33 12.56C10.66 12.56 12.59 10.67 12.59 8.3C12.59 5.95 10.66 4.02 8.33 4.02ZM8.33 11.08C6.8 11.08 5.54 9.84 5.54 8.3C5.54 6.76 6.77 5.55 8.33 5.55C9.85 5.55 11.07 6.76 11.07 8.3C11.07 9.84 9.85 11.08 8.33 11.08ZM13.74 3.88C13.74 3.32 13.3 2.88 12.74 2.88C12.19 2.88 11.74 3.32 11.74 3.88C11.74 4.44 12.19 4.88 12.74 4.88C13.3 4.88 13.74 4.44 13.74 3.88ZM16.56 4.88C16.49 3.53 16.19 2.35 15.23 1.38C14.26 0.43 13.08 0.13 11.74 0.06C10.37 -0.03 6.25 -0.03 4.88 0.06C3.54 0.13 2.39 0.43 1.39 1.38C0.42 2.35 0.13 3.53 0.05 4.88C-0.02 6.25 -0.02 10.37 0.05 11.75C0.13 13.08 0.42 14.23 1.39 15.23C2.39 16.2 3.54 16.5 4.88 16.57C6.25 16.64 10.37 16.64 11.74 16.57C13.08 16.5 14.26 16.2 15.23 15.23C16.19 14.23 16.49 13.08 16.56 11.75C16.64 10.37 16.64 6.25 16.56 4.88ZM14.78 13.19C14.52 13.94 13.93 14.49 13.22 14.79C12.11 15.23 9.51 15.12 8.33 15.12C7.1 15.12 4.5 15.23 3.43 14.79C2.69 14.49 2.13 13.94 1.83 13.19C1.39 12.12 1.5 9.51 1.5 8.3C1.5 7.11 1.39 4.51 1.83 3.39C2.13 2.69 2.69 2.13 3.43 1.83C4.5 1.38 7.1 1.5 8.33 1.5C9.51 1.5 12.11 1.38 13.22 1.83C13.93 2.09 14.49 2.69 14.78 3.39C15.23 4.51 15.12 7.11 15.12 8.3C15.12 9.51 15.23 12.12 14.78 13.19Z" fill="#292F36" fill-opacity="1.000000" fill-rule="nonzero"/>
</svg>
