<svg width="17.964966" height="14.589966" viewBox="0 0 17.965 14.59" fill="none" xmlns="http://www.w3.org/2000/svg" xmlns:xlink="http://www.w3.org/1999/xlink">
	<desc>
			Created with Pixso.
	</desc>
	<defs/>
	<path id="path" d="M16.13 3.62C16.84 3.08 17.47 2.45 17.96 1.71C17.33 2 16.59 2.21 15.85 2.28C16.62 1.83 17.19 1.13 17.47 0.25C16.77 0.66 15.96 0.98 15.15 1.15C14.44 0.41 13.5 0 12.44 0C10.4 0 8.75 1.64 8.75 3.69C8.75 3.96 8.78 4.25 8.85 4.53C5.8 4.35 3.05 2.88 1.22 0.66C0.91 1.2 0.73 1.83 0.73 2.52C0.73 3.79 1.37 4.91 2.39 5.58C1.79 5.56 1.19 5.4 0.7 5.13C0.7 6.91 1.96 8.43 3.65 8.78C3.37 8.85 3.02 8.92 2.7 8.92C2.46 8.92 2.25 8.89 2 8.85C2.46 10.34 3.83 11.39 5.44 11.43C4.18 12.41 2.6 13.01 0.87 13.01C0.56 13.01 0.28 12.97 0 12.94C1.61 13.99 3.55 14.59 5.66 14.59C12.44 14.59 16.13 9 16.13 4.1C16.13 3.94 16.13 3.79 16.13 3.62Z" fill="#292F36" fill-opacity="1.000000" fill-rule="nonzero"/>
</svg>
